<svg width="73" height="89" fill="none" xmlns="http://www.w3.org/2000/svg"><g clip-path="url(#a)"><path d="M24.533 47.256h2.772c.36 0 .652-.303.652-.678a.665.665 0 0 0-.652-.678h-2.772a.665.665 0 0 0-.652.678c0 .375.293.678.652.678ZM16.198 57.15c8.933 0 16.2 6.703 16.2 15.985 0 4.45-1.699 8.514-4.784 11.448-2.996 2.848-7.051 4.416-11.417 4.416s-8.42-1.57-11.417-4.416C1.695 81.65-.003 77.585-.003 73.135c.001-9.282 7.269-15.985 16.201-15.985Zm0 23.158c3.806 0 6.903-3.217 6.903-7.173 0-3.955-3.097-7.173-6.903-7.173-3.805 0-6.902 3.217-6.902 7.173.001 3.956 3.097 7.173 6.902 7.173ZM49.53 65.85c6.325 0 11.47 5.346 11.47 11.918 0 3.15-1.203 6.028-3.387 8.105C55.491 87.89 52.621 89 49.531 89c-3.09 0-5.962-1.11-8.083-3.127-2.185-2.077-3.387-4.955-3.387-8.105 0-6.572 5.146-11.918 11.47-11.918Zm0 16.973c2.682 0 4.864-2.268 4.864-5.054 0-2.787-2.181-5.053-4.863-5.053-2.683 0-4.864 2.267-4.864 5.053s2.183 5.054 4.864 5.054Z" fill="#D3E9FF"/><path d="M28.81 60.365c-3.327-3.215-7.806-4.987-12.612-4.987-3.24 0-6.328.805-9.017 2.313a.363.363 0 0 1-.04.018 1.273 1.273 0 0 1-.883.252c-.721-.067-1.254-.73-1.19-1.48.012-.143 1.227-14.308 1.457-17.087C6.89 35 9.945 35 11.095 35H28.81c1.581-.003 4.512-.001 5.416 4.654.509 2.621 1.628 8.136 2.493 12.347h12.107v-6.896c0-1.007.785-1.82 1.752-1.82s1.753.813 1.753 1.82v6.897h2.955c5.076 0 6.645 11.328 3.85 16.407-2.406-2.664-5.823-4.332-9.608-4.332-6.627 0-12.125 5.11-13.041 11.738h-2.572a18.8 18.8 0 0 0 .19-2.68c0-4.934-1.88-9.47-5.295-12.77ZM9.14 39.627C8.997 41.368 8.467 47.569 8.088 52h10.905V37.727h-7.9c-1.276 0-1.8.074-1.952 1.9Zm22.513.569c-.48-2.469-1.373-2.467-2.843-2.469h-7.717v14.275h12.943c-.912-4.451-2.021-9.945-2.383-11.806Z" fill="#D3E9FF"/><ellipse cx="49.865" cy="16.76" rx="9.72" ry="9.572" transform="rotate(165 49.865 16.76)" fill="#DCEFFF" fill-opacity=".5"/><circle cx="49.974" cy="33.144" r="5.788" transform="rotate(165 49.974 33.144)" fill="#BDDFFF" fill-opacity=".5"/><circle cx="46.136" cy="25.136" r="6.804" transform="rotate(165 46.136 25.136)" fill="#D6EAFE" fill-opacity=".5"/></g><defs><clipPath id="a"><path fill="#fff" transform="matrix(-1 0 0 1 73 0)" d="M0 0h73v89H0z"/></clipPath></defs></svg>